<svg id="Layer_1" data-name="Layer 1" xmlns="http://www.w3.org/2000/svg" xmlns:xlink="http://www.w3.org/1999/xlink" viewBox="0 0 1441.79 899"><defs><style>.cls-1{fill:url(#linear-gradient);}.cls-2,.cls-3{fill:#fff;}.cls-2{stroke:#000;stroke-miterlimit:10;}.cls-4{fill:url(#linear-gradient-2);}.cls-5{fill:url(#linear-gradient-3);}</style><linearGradient id="linear-gradient" x1="195.53" y1="609.98" x2="711.22" y2="360.6" gradientUnits="userSpaceOnUse"><stop offset="0" stop-color="#fff"/><stop offset="0.44" stop-color="#ff931e"/></linearGradient><linearGradient id="linear-gradient-2" x1="3" y1="763.99" x2="1334.32" y2="763.99" gradientUnits="userSpaceOnUse"><stop offset="0" stop-color="#fff"/><stop offset="0.95" stop-color="aqua"/></linearGradient><linearGradient id="linear-gradient-3" x1="189.24" y1="92.55" x2="1461.47" y2="26.18" gradientUnits="userSpaceOnUse"><stop offset="0" stop-color="#fff"/><stop offset="0.67" stop-color="aqua"/></linearGradient></defs><title>Fish Background</title><path class="cls-1" d="M357,737.2c-11.83,1.94-101.22,15.17-168.2-46.43-73.57-67.65-57.59-168.12-52.64-192.48,17.8-87.54,85-135.88,138.46-174.36,68.05-49,210.58-151.54,322.68-91.72C702.72,288.5,737.16,465,668.2,590,611,693.8,487.33,753.28,357,737.2Z" transform="translate(-1 -1)"/><circle cx="542.5" cy="363.5" r="112"/><circle class="cls-2" cx="587.5" cy="351.5" r="32"/><ellipse class="cls-3" cx="519" cy="621.5" rx="51.5" ry="32"/><path class="cls-4" d="M1332,899c-.14.34-.28.67-.43,1H926.18c-33.66-1.22-68.8-1.69-105.18-1-1.82,0-6.89.37-15.25,1H77.29L76,899c-32.95-26-58-61.16-73-94.26V709.82C26.6,701.6,76.66,729.15,186,751c23.62,4.72,97.24,19.44,164,20,121.59,1,158.17-45.4,338-97,98.29-28.2,159.73-45.83,235-46,55.75-.12,226.43-1.76,339,118,11.16,11.87,38.86,37.52,56,81C1328.15,852.73,1339.23,880.84,1332,899Z" transform="translate(-1 -1)"/><path class="cls-5" d="M1442,11c-2.09,10.65-8.24,20-38,46-29.2,25.51-60.67,53-90,68-18.19,9.31-66.31,29.54-243-10C911,79.19,908.77,53.27,853,65c-85.31,18-114.1,85.74-183,73-35.61-6.59-33.89-25.8-81-52C464.43,16.72,314.14,74.16,307,77c-51.49,20.51-41.88,32.05-114,65C116.77,176.83,42.54,210.75,2,179c-.34-.26-.67-.53-1-.82V4.63c.33-.55.66-1.09,1-1.63L3.27,1H1442.76A43.81,43.81,0,0,1,1442,11Z" transform="translate(-1 -1)"/></svg>